<svg width="59" height="30" viewBox="0 0 59 30" fill="none" xmlns="http://www.w3.org/2000/svg">
<rect width="59" height="30" rx="4" fill="#FB6767"/>
<path d="M15.4436 20L19.8396 10.13H21.0856L25.5516 20H24.0536L22.8356 17.2L23.4516 17.592H17.4736L18.1316 17.2L16.9136 20H15.4436ZM20.4416 11.726L18.3136 16.752L17.9776 16.43H22.9476L22.6676 16.752L20.4976 11.726H20.4416ZM29.8679 20.126C29.2519 20.126 28.7059 19.9813 28.2299 19.692C27.7632 19.4027 27.3992 18.9827 27.1379 18.432C26.8859 17.8813 26.7599 17.228 26.7599 16.472C26.7599 15.7067 26.8859 15.0533 27.1379 14.512C27.3992 13.9707 27.7632 13.5553 28.2299 13.266C28.7059 12.9673 29.2519 12.818 29.8679 12.818C30.4745 12.818 31.0065 12.972 31.4639 13.28C31.9305 13.5787 32.2385 13.9893 32.3879 14.512H32.2199V9.696H33.6339V20H32.2339V18.404H32.4019C32.2432 18.936 31.9352 19.356 31.4779 19.664C31.0205 19.972 30.4839 20.126 29.8679 20.126ZM30.2179 19.02C30.8245 19.02 31.3145 18.8053 31.6879 18.376C32.0612 17.9467 32.2479 17.312 32.2479 16.472C32.2479 15.632 32.0612 15.002 31.6879 14.582C31.3145 14.1527 30.8245 13.938 30.2179 13.938C29.6019 13.938 29.1072 14.1527 28.7339 14.582C28.3699 15.002 28.1879 15.632 28.1879 16.472C28.1879 17.312 28.3699 17.9467 28.7339 18.376C29.1072 18.8053 29.6019 19.02 30.2179 19.02ZM38.9031 20.126C38.2871 20.126 37.7411 19.9813 37.2651 19.692C36.7985 19.4027 36.4345 18.9827 36.1731 18.432C35.9211 17.8813 35.7951 17.228 35.7951 16.472C35.7951 15.7067 35.9211 15.0533 36.1731 14.512C36.4345 13.9707 36.7985 13.5553 37.2651 13.266C37.7411 12.9673 38.2871 12.818 38.9031 12.818C39.5098 12.818 40.0418 12.972 40.4991 13.28C40.9658 13.5787 41.2738 13.9893 41.4231 14.512H41.2551V9.696H42.6691V20H41.2691V18.404H41.4371C41.2785 18.936 40.9705 19.356 40.5131 19.664C40.0558 19.972 39.5191 20.126 38.9031 20.126ZM39.2531 19.02C39.8598 19.02 40.3498 18.8053 40.7231 18.376C41.0965 17.9467 41.2831 17.312 41.2831 16.472C41.2831 15.632 41.0965 15.002 40.7231 14.582C40.3498 14.1527 39.8598 13.938 39.2531 13.938C38.6371 13.938 38.1425 14.1527 37.7691 14.582C37.4051 15.002 37.2231 15.632 37.2231 16.472C37.2231 17.312 37.4051 17.9467 37.7691 18.376C38.1425 18.8053 38.6371 19.02 39.2531 19.02Z" fill="white"/>
</svg>
