<svg width="16" height="16" viewBox="0 0 16 16" fill="none" xmlns="http://www.w3.org/2000/svg">
<path fill-rule="evenodd" clip-rule="evenodd" d="M8.00002 11.334C7.66268 11.334 7.34002 11.1787 7.11602 10.906L4.30735 7.50732C3.97135 7.09998 3.90402 6.52198 4.13468 6.03332C4.33802 5.60198 4.74268 5.33398 5.19135 5.33398H10.8087C11.2574 5.33398 11.662 5.60198 11.8654 6.03332C12.096 6.52198 12.0287 7.09998 11.6934 7.50665L8.88402 10.906C8.66002 11.1787 8.33735 11.334 8.00002 11.334Z" fill="#404040"/>
<mask id="mask0_8116_40864" style="mask-type:alpha" maskUnits="userSpaceOnUse" x="3" y="5" width="10" height="7">
<path fill-rule="evenodd" clip-rule="evenodd" d="M8.00002 11.334C7.66268 11.334 7.34002 11.1787 7.11602 10.906L4.30735 7.50732C3.97135 7.09998 3.90402 6.52198 4.13468 6.03332C4.33802 5.60198 4.74268 5.33398 5.19135 5.33398H10.8087C11.2574 5.33398 11.662 5.60198 11.8654 6.03332C12.096 6.52198 12.0287 7.09998 11.6934 7.50665L8.88402 10.906C8.66002 11.1787 8.33735 11.334 8.00002 11.334Z" fill="white"/>
</mask>
<g mask="url(#mask0_8116_40864)">
<rect width="16" height="16" fill="#404040"/>
</g>
</svg>
