<svg width="77" height="30" viewBox="0 0 77 30" fill="none" xmlns="http://www.w3.org/2000/svg">
<rect x="0.5" y="0.5" width="76" height="29" rx="3.5" stroke="#FB6767"/>
<path d="M20.7599 20.126C19.7519 20.126 18.8933 19.9207 18.1839 19.51C17.4746 19.0993 16.9286 18.516 16.5459 17.76C16.1726 16.9947 15.9859 16.094 15.9859 15.058C15.9859 14.022 16.1726 13.126 16.5459 12.37C16.9286 11.614 17.4746 11.0307 18.1839 10.62C18.8933 10.2093 19.7519 10.004 20.7599 10.004C21.4599 10.004 22.0853 10.1067 22.6359 10.312C23.1866 10.5173 23.6673 10.816 24.0779 11.208L23.5739 12.37C23.1259 11.9873 22.6873 11.712 22.2579 11.544C21.8379 11.376 21.3479 11.292 20.7879 11.292C19.7239 11.292 18.9119 11.6187 18.3519 12.272C17.7919 12.9253 17.5119 13.854 17.5119 15.058C17.5119 16.262 17.7919 17.1953 18.3519 17.858C18.9119 18.5113 19.7239 18.838 20.7879 18.838C21.3479 18.838 21.8379 18.754 22.2579 18.586C22.6873 18.418 23.1259 18.138 23.5739 17.746L24.0779 18.908C23.6673 19.3 23.1866 19.6033 22.6359 19.818C22.0853 20.0233 21.4599 20.126 20.7599 20.126ZM28.7535 20.126C28.1282 20.126 27.5822 19.9813 27.1155 19.692C26.6488 19.4027 26.2848 18.9827 26.0235 18.432C25.7715 17.8813 25.6455 17.228 25.6455 16.472C25.6455 15.7067 25.7715 15.0533 26.0235 14.512C26.2848 13.9707 26.6488 13.5553 27.1155 13.266C27.5822 12.9673 28.1282 12.818 28.7535 12.818C29.3695 12.818 29.9062 12.972 30.3635 13.28C30.8208 13.588 31.1242 14.008 31.2735 14.54H31.1195L31.2595 12.944H32.6315C32.6035 13.2333 32.5755 13.5227 32.5475 13.812C32.5288 14.092 32.5195 14.3673 32.5195 14.638V20H31.1055V18.432H31.2595C31.1102 18.9547 30.8022 19.37 30.3355 19.678C29.8782 19.9767 29.3508 20.126 28.7535 20.126ZM29.1035 19.02C29.7102 19.02 30.1955 18.8053 30.5595 18.376C30.9328 17.9467 31.1195 17.312 31.1195 16.472C31.1195 15.632 30.9328 15.002 30.5595 14.582C30.1955 14.1527 29.7102 13.938 29.1035 13.938C28.4875 13.938 27.9928 14.1527 27.6195 14.582C27.2555 15.002 27.0735 15.632 27.0735 16.472C27.0735 17.312 27.2555 17.9467 27.6195 18.376C27.9835 18.8053 28.4782 19.02 29.1035 19.02ZM35.0867 20V14.638C35.0867 14.3673 35.0727 14.092 35.0447 13.812C35.0261 13.5227 35.0027 13.2333 34.9747 12.944H36.3467L36.4727 14.428H36.3047C36.5194 13.9053 36.8507 13.5087 37.2987 13.238C37.7467 12.958 38.2647 12.818 38.8527 12.818C39.6834 12.818 40.3087 13.0467 40.7287 13.504C41.1581 13.9613 41.3727 14.6707 41.3727 15.632V20H39.9587V15.716C39.9587 15.0907 39.8327 14.6427 39.5807 14.372C39.3381 14.092 38.9647 13.952 38.4607 13.952C37.8634 13.952 37.3874 14.1387 37.0327 14.512C36.6781 14.876 36.5007 15.3707 36.5007 15.996V20H35.0867ZM46.9836 20.126C46.2742 20.126 45.6536 19.9813 45.1216 19.692C44.5989 19.3933 44.1929 18.9687 43.9036 18.418C43.6236 17.858 43.4836 17.1953 43.4836 16.43C43.4836 15.674 43.6282 15.0253 43.9176 14.484C44.2069 13.9427 44.6129 13.532 45.1356 13.252C45.6582 12.9627 46.2742 12.818 46.9836 12.818C47.4409 12.818 47.8842 12.8973 48.3136 13.056C48.7429 13.2053 49.0976 13.42 49.3776 13.7L48.9156 14.694C48.6542 14.442 48.3602 14.2553 48.0336 14.134C47.7069 14.0033 47.3896 13.938 47.0816 13.938C46.4096 13.938 45.8822 14.1527 45.4996 14.582C45.1169 15.0113 44.9256 15.632 44.9256 16.444C44.9256 17.2653 45.1169 17.8953 45.4996 18.334C45.8822 18.7727 46.4096 18.992 47.0816 18.992C47.3802 18.992 47.6929 18.936 48.0196 18.824C48.3462 18.7027 48.6449 18.5113 48.9156 18.25L49.3776 19.244C49.0882 19.524 48.7242 19.7433 48.2856 19.902C47.8562 20.0513 47.4222 20.126 46.9836 20.126ZM54.5052 20.126C53.3665 20.126 52.4705 19.804 51.8172 19.16C51.1638 18.516 50.8372 17.6247 50.8372 16.486C50.8372 15.7487 50.9772 15.1047 51.2572 14.554C51.5465 14.0033 51.9432 13.5787 52.4472 13.28C52.9605 12.972 53.5532 12.818 54.2252 12.818C54.8878 12.818 55.4432 12.958 55.8912 13.238C56.3392 13.518 56.6798 13.9147 56.9132 14.428C57.1465 14.932 57.2632 15.5293 57.2632 16.22V16.668H51.9432V15.856H56.2972L56.0592 16.038C56.0592 15.338 55.9005 14.7967 55.5832 14.414C55.2752 14.022 54.8272 13.826 54.2392 13.826C53.5858 13.826 53.0818 14.0547 52.7272 14.512C52.3725 14.96 52.1952 15.5807 52.1952 16.374V16.514C52.1952 17.3447 52.3958 17.97 52.7972 18.39C53.2078 18.81 53.7865 19.02 54.5332 19.02C54.9438 19.02 55.3265 18.964 55.6812 18.852C56.0452 18.7307 56.3905 18.5347 56.7172 18.264L57.1792 19.23C56.8525 19.5193 56.4558 19.7433 55.9892 19.902C55.5225 20.0513 55.0278 20.126 54.5052 20.126ZM59.3898 20V9.696H60.8038V20H59.3898Z" fill="#FB6767"/>
</svg>
