<svg width="16" height="16" viewBox="0 0 16 16" fill="none" xmlns="http://www.w3.org/2000/svg">
<path fill-rule="evenodd" clip-rule="evenodd" d="M8 10.3332C7.82934 10.3332 7.65867 10.2678 7.52867 10.1378L4.862 7.47117C4.60134 7.21051 4.60134 6.78917 4.862 6.52851C5.12267 6.26784 5.544 6.26784 5.80467 6.52851L8.008 8.73184L10.2033 6.61184C10.4693 6.35651 10.89 6.36384 11.146 6.62851C11.402 6.89317 11.3947 7.31584 11.13 7.57117L8.46334 10.1458C8.33334 10.2712 8.16667 10.3332 8 10.3332Z" fill="white"/>
<mask id="mask0_658_5751" style="mask-type:alpha" maskUnits="userSpaceOnUse" x="4" y="6" width="8" height="5">
<path fill-rule="evenodd" clip-rule="evenodd" d="M8 10.3332C7.82934 10.3332 7.65867 10.2678 7.52867 10.1378L4.862 7.47117C4.60134 7.21051 4.60134 6.78917 4.862 6.52851C5.12267 6.26784 5.544 6.26784 5.80467 6.52851L8.008 8.73184L10.2033 6.61184C10.4693 6.35651 10.89 6.36384 11.146 6.62851C11.402 6.89317 11.3947 7.31584 11.13 7.57117L8.46334 10.1458C8.33334 10.2712 8.16667 10.3332 8 10.3332Z" fill="white"/>
</mask>
<g mask="url(#mask0_658_5751)">
<rect width="16" height="16" fill="black"/>
</g>
</svg>
