<svg width="20" height="20" viewBox="0 0 20 20" fill="none" xmlns="http://www.w3.org/2000/svg">
<g clip-path="url(#clip0_6_153)">
<path d="M16.4283 10C16.0338 10 15.714 10.3198 15.714 10.7143V17.857C15.714 18.2515 15.3943 18.5713 14.9998 18.5713H2.14283C1.74833 18.5713 1.42854 18.2515 1.42854 17.857V3.57153C1.42854 3.17704 1.74833 2.85724 2.14283 2.85724H10.7141C11.1086 2.85724 11.4284 2.53745 11.4284 2.14295C11.4284 1.74846 11.1086 1.42871 10.7141 1.42871H2.14283C0.959376 1.42871 0 2.38808 0 3.57153V17.857C0 19.0405 0.959376 19.9999 2.14283 19.9999H14.9998C16.1833 19.9999 17.1426 19.0405 17.1426 17.857V10.7143C17.1426 10.3198 16.8228 10 16.4283 10Z" fill="#CA9638"/>
<path d="M19.1995 0.801185C18.6866 0.288245 17.991 0.000135497 17.2656 0.000219202C16.5399 -0.0018734 15.8435 0.286739 15.3321 0.801645L5.92361 10.2093C5.84556 10.288 5.78667 10.3836 5.75148 10.4886L4.32294 14.7743C4.19826 15.1486 4.40061 15.553 4.7749 15.6776C4.84751 15.7018 4.92356 15.7142 5.00006 15.7143C5.07674 15.7141 5.15295 15.7018 5.22577 15.6779L9.51143 14.2493C9.61669 14.2142 9.71232 14.155 9.79071 14.0765L19.1992 4.66803C20.267 3.6003 20.2671 1.86904 19.1995 0.801185Z" fill="#CA9638"/>
</g>
<defs>
<clipPath id="clip0_6_153">
<rect width="20" height="20" fill="white"/>
</clipPath>
</defs>
</svg>
