<svg width="16" height="16" viewBox="0 0 16 16" fill="none" xmlns="http://www.w3.org/2000/svg">
<path fill-rule="evenodd" clip-rule="evenodd" d="M8.00001 6.99964C7.44868 6.99964 7.00001 7.44831 7.00001 7.99964C7.00001 8.55098 7.44868 8.99964 8.00001 8.99964C8.55134 8.99964 9.00001 8.55098 9.00001 7.99964C9.00001 7.44831 8.55134 6.99964 8.00001 6.99964ZM8.00001 10.333C6.71334 10.333 5.66668 9.28631 5.66668 7.99964C5.66668 6.71298 6.71334 5.66631 8.00001 5.66631C9.28668 5.66631 10.3333 6.71298 10.3333 7.99964C10.3333 9.28631 9.28668 10.333 8.00001 10.333ZM14.5787 7.66764C14.1527 6.92631 11.804 3.21031 7.81934 3.33497C4.13468 3.42897 1.99068 6.67564 1.42134 7.66764C1.30401 7.87364 1.30401 8.12564 1.42134 8.33164C1.84134 9.06297 4.10801 12.6663 8.01668 12.6663C8.07068 12.6663 8.12534 12.6656 8.18068 12.6643C11.8653 12.5703 14.0093 9.32364 14.5787 8.33164C14.696 8.12564 14.696 7.87364 14.5787 7.66764Z" fill="#323232"/>
<mask id="mask0" mask-type="alpha" maskUnits="userSpaceOnUse" x="1" y="3" width="14" height="10">
<path fill-rule="evenodd" clip-rule="evenodd" d="M8.00001 6.99964C7.44868 6.99964 7.00001 7.44831 7.00001 7.99964C7.00001 8.55098 7.44868 8.99964 8.00001 8.99964C8.55134 8.99964 9.00001 8.55098 9.00001 7.99964C9.00001 7.44831 8.55134 6.99964 8.00001 6.99964ZM8.00001 10.333C6.71334 10.333 5.66668 9.28631 5.66668 7.99964C5.66668 6.71298 6.71334 5.66631 8.00001 5.66631C9.28668 5.66631 10.3333 6.71298 10.3333 7.99964C10.3333 9.28631 9.28668 10.333 8.00001 10.333ZM14.5787 7.66764C14.1527 6.92631 11.804 3.21031 7.81934 3.33497C4.13468 3.42897 1.99068 6.67564 1.42134 7.66764C1.30401 7.87364 1.30401 8.12564 1.42134 8.33164C1.84134 9.06297 4.10801 12.6663 8.01668 12.6663C8.07068 12.6663 8.12534 12.6656 8.18068 12.6643C11.8653 12.5703 14.0093 9.32364 14.5787 8.33164C14.696 8.12564 14.696 7.87364 14.5787 7.66764Z" fill="white"/>
</mask>
<g mask="url(#mask0)">
<rect y="-0.000366211" width="16" height="16" fill="#323232"/>
</g>
</svg>
