<svg width="17" height="16" viewBox="0 0 17 16" fill="none" xmlns="http://www.w3.org/2000/svg">
<path fill-rule="evenodd" clip-rule="evenodd" d="M13.438 11.9954L14.3047 12.862C14.5654 13.1227 14.5654 13.544 14.3047 13.8047C14.1747 13.9347 14.004 14 13.8334 14C13.6627 14 13.492 13.9347 13.362 13.8047L11.5574 12L11.1667 11.6094L10.27 10.7127L10.224 10.6667L8.55584 8.99851C8.53736 8.99953 8.51876 9.00005 8.50004 9.00005C7.94871 9.00005 7.50004 8.55138 7.50004 8.00005C7.50004 7.98133 7.50056 7.96272 7.50158 7.94425L5.35537 5.79804L4.18804 4.63071L2.69537 3.13804C2.43471 2.87738 2.43471 2.45604 2.69537 2.19538C2.95604 1.93471 3.37737 1.93471 3.63804 2.19538L4.78004 3.33738L5.75671 4.31404L8.44425 7.00159C8.46272 7.00056 8.48132 7.00005 8.50004 7.00005C9.05137 7.00005 9.50004 7.44871 9.50004 8.00005C9.50004 8.01877 9.49952 8.03737 9.4985 8.05584L12.1094 10.6667L13.438 11.9954ZM6.22858 3.84283L8.09325 5.70749C8.22592 5.68416 8.36058 5.66683 8.49992 5.66683C9.78658 5.66683 10.8333 6.71349 10.8333 8.00016C10.8333 8.13949 10.8159 8.27416 10.7926 8.40683L12.5806 10.1955L13.1366 10.7515C14.1512 9.82616 14.8019 8.8135 15.0786 8.3315C15.1959 8.12616 15.1959 7.8735 15.0786 7.66816C14.6532 6.92683 12.3039 3.21083 8.31992 3.33549C7.53058 3.35616 6.81592 3.52616 6.16792 3.78283L6.22858 3.84283ZM9.79871 11.1848L10.6954 12.0808L10.832 12.2175C10.184 12.4741 9.47004 12.6441 8.68071 12.6641C8.62604 12.6661 8.57071 12.6668 8.51671 12.6668C4.60804 12.6668 2.34137 9.06346 1.92137 8.33146C1.80404 8.12613 1.80404 7.87346 1.92137 7.66813C2.19804 7.1868 2.84871 6.17413 3.86337 5.2488L4.88404 6.27013L6.20804 7.59346C6.18404 7.72613 6.16671 7.8608 6.16671 8.00013C6.16671 9.2868 7.21337 10.3335 8.50004 10.3335C8.63937 10.3335 8.77404 10.3161 8.90671 10.2921L9.75271 11.1381L9.79871 11.1848Z" fill="#C4C4C4"/>
<mask id="mask0" mask-type="alpha" maskUnits="userSpaceOnUse" x="1" y="1" width="15" height="13">
<path fill-rule="evenodd" clip-rule="evenodd" d="M13.438 11.9954L14.3047 12.862C14.5654 13.1227 14.5654 13.544 14.3047 13.8047C14.1747 13.9347 14.004 14 13.8334 14C13.6627 14 13.492 13.9347 13.362 13.8047L11.5574 12L11.1667 11.6094L10.27 10.7127L10.224 10.6667L8.55584 8.99851C8.53736 8.99953 8.51876 9.00005 8.50004 9.00005C7.94871 9.00005 7.50004 8.55138 7.50004 8.00005C7.50004 7.98133 7.50056 7.96272 7.50158 7.94425L5.35537 5.79804L4.18804 4.63071L2.69537 3.13804C2.43471 2.87738 2.43471 2.45604 2.69537 2.19538C2.95604 1.93471 3.37737 1.93471 3.63804 2.19538L4.78004 3.33738L5.75671 4.31404L8.44425 7.00159C8.46272 7.00056 8.48132 7.00005 8.50004 7.00005C9.05137 7.00005 9.50004 7.44871 9.50004 8.00005C9.50004 8.01877 9.49952 8.03737 9.4985 8.05584L12.1094 10.6667L13.438 11.9954ZM6.22858 3.84283L8.09325 5.70749C8.22592 5.68416 8.36058 5.66683 8.49992 5.66683C9.78658 5.66683 10.8333 6.71349 10.8333 8.00016C10.8333 8.13949 10.8159 8.27416 10.7926 8.40683L12.5806 10.1955L13.1366 10.7515C14.1512 9.82616 14.8019 8.8135 15.0786 8.3315C15.1959 8.12616 15.1959 7.8735 15.0786 7.66816C14.6532 6.92683 12.3039 3.21083 8.31992 3.33549C7.53058 3.35616 6.81592 3.52616 6.16792 3.78283L6.22858 3.84283ZM9.79871 11.1848L10.6954 12.0808L10.832 12.2175C10.184 12.4741 9.47004 12.6441 8.68071 12.6641C8.62604 12.6661 8.57071 12.6668 8.51671 12.6668C4.60804 12.6668 2.34137 9.06346 1.92137 8.33146C1.80404 8.12613 1.80404 7.87346 1.92137 7.66813C2.19804 7.1868 2.84871 6.17413 3.86337 5.2488L4.88404 6.27013L6.20804 7.59346C6.18404 7.72613 6.16671 7.8608 6.16671 8.00013C6.16671 9.2868 7.21337 10.3335 8.50004 10.3335C8.63937 10.3335 8.77404 10.3161 8.90671 10.2921L9.75271 11.1381L9.79871 11.1848Z" fill="white"/>
</mask>
<g mask="url(#mask0)">
<rect x="0.5" width="16" height="16" fill="#C4C4C4"/>
</g>
</svg>
