<svg width="20" height="20" viewBox="0 0 20 20" fill="none" xmlns="http://www.w3.org/2000/svg">
<path fill-rule="evenodd" clip-rule="evenodd" d="M11.9108 6.00583C11.585 5.68 11.585 5.15333 11.9108 4.8275L14.4108 2.3275C14.7367 2.00166 15.2633 2.00166 15.5892 2.3275L18.0892 4.8275C18.2517 4.99 18.3333 5.20333 18.3333 5.41666C18.3333 5.63 18.2517 5.84333 18.0892 6.00583C17.7633 6.33166 17.2367 6.33166 16.9108 6.00583L15.8333 4.92833V14.925C15.8333 16.575 14.5142 17.9167 12.8925 17.9167H10.8333C10.3725 17.9167 10 17.5442 10 17.0833C10 16.6225 10.3725 16.25 10.8333 16.25H12.8925C13.595 16.25 14.1667 15.6558 14.1667 14.925V4.92833L13.0892 6.00583C12.7633 6.33166 12.2367 6.33166 11.9108 6.00583ZM4.16667 15.0715V5.07484C4.16667 3.42567 5.48583 2.08317 7.1075 2.08317H9.16667C9.6275 2.08317 10 2.45567 10 2.91651C10 3.37734 9.6275 3.74984 9.16667 3.74984H7.1075C6.40583 3.74984 5.83333 4.34401 5.83333 5.07484V15.0715L6.91083 13.994C7.23667 13.669 7.76333 13.669 8.08917 13.994C8.25167 14.1565 8.33333 14.3698 8.33333 14.5832C8.33333 14.7965 8.25167 15.0098 8.08917 15.1723L5.58917 17.6723C5.26333 17.9982 4.73667 17.9982 4.41083 17.6723L1.91083 15.1723C1.585 14.8473 1.585 14.3198 1.91083 13.994C2.23667 13.669 2.76333 13.669 3.08917 13.994L4.16667 15.0715Z" fill="#FFCD4D"/>
<mask id="mask0_778_8984" style="mask-type:alpha" maskUnits="userSpaceOnUse" x="1" y="2" width="18" height="16">
<path fill-rule="evenodd" clip-rule="evenodd" d="M11.9108 6.00583C11.585 5.68 11.585 5.15333 11.9108 4.8275L14.4108 2.3275C14.7367 2.00166 15.2633 2.00166 15.5892 2.3275L18.0892 4.8275C18.2517 4.99 18.3333 5.20333 18.3333 5.41666C18.3333 5.63 18.2517 5.84333 18.0892 6.00583C17.7633 6.33166 17.2367 6.33166 16.9108 6.00583L15.8333 4.92833V14.925C15.8333 16.575 14.5142 17.9167 12.8925 17.9167H10.8333C10.3725 17.9167 10 17.5442 10 17.0833C10 16.6225 10.3725 16.25 10.8333 16.25H12.8925C13.595 16.25 14.1667 15.6558 14.1667 14.925V4.92833L13.0892 6.00583C12.7633 6.33166 12.2367 6.33166 11.9108 6.00583ZM4.16667 15.0715V5.07484C4.16667 3.42567 5.48583 2.08317 7.1075 2.08317H9.16667C9.6275 2.08317 10 2.45567 10 2.91651C10 3.37734 9.6275 3.74984 9.16667 3.74984H7.1075C6.40583 3.74984 5.83333 4.34401 5.83333 5.07484V15.0715L6.91083 13.994C7.23667 13.669 7.76333 13.669 8.08917 13.994C8.25167 14.1565 8.33333 14.3698 8.33333 14.5832C8.33333 14.7965 8.25167 15.0098 8.08917 15.1723L5.58917 17.6723C5.26333 17.9982 4.73667 17.9982 4.41083 17.6723L1.91083 15.1723C1.585 14.8473 1.585 14.3198 1.91083 13.994C2.23667 13.669 2.76333 13.669 3.08917 13.994L4.16667 15.0715Z" fill="white"/>
</mask>
<g mask="url(#mask0_778_8984)">
<rect width="20" height="20" fill="#FFCD4D"/>
</g>
</svg>
